<svg width="151" height="13" viewBox="0 0 151 13" fill="none" xmlns="http://www.w3.org/2000/svg">
<path opacity="0.4" d="M8.74219 7.33594C8.74219 8.13281 8.51562 8.74219 8.0625 9.16406C7.61458 9.58073 6.97917 9.78906 6.15625 9.78906C5.33854 9.78906 4.68229 9.51562 4.1875 8.96875C3.69792 8.41667 3.45312 7.66667 3.45312 6.71875V5.85938C3.45312 4.94271 3.70052 4.21094 4.19531 3.66406C4.69531 3.11198 5.34896 2.83594 6.15625 2.83594C6.98958 2.83594 7.63021 3.04948 8.07812 3.47656C8.52604 3.90365 8.75 4.50521 8.75 5.28125H7.60938C7.60938 4.76562 7.48438 4.39844 7.23438 4.17969C6.98958 3.95573 6.63021 3.84375 6.15625 3.84375C5.66667 3.84375 5.28125 4.02344 5 4.38281C4.71875 4.74219 4.57812 5.24219 4.57812 5.88281V6.76562C4.57812 7.39062 4.71875 7.88281 5 8.24219C5.28125 8.60156 5.66667 8.78125 6.15625 8.78125C6.63542 8.78125 6.99479 8.67188 7.23438 8.45312C7.47917 8.23438 7.60156 7.86198 7.60156 7.33594H8.74219ZM1.60938 6.30469C1.60938 7.20052 1.81771 8.03125 2.23438 8.79688C2.65104 9.55729 3.21615 10.1536 3.92969 10.5859C4.64844 11.0182 5.42448 11.2344 6.25781 11.2344C7.09115 11.2344 7.86458 11.0182 8.57812 10.5859C9.29167 10.1536 9.85677 9.55729 10.2734 8.79688C10.6901 8.03125 10.8984 7.20052 10.8984 6.30469C10.8984 5.41927 10.6927 4.59896 10.2812 3.84375C9.86979 3.08854 9.30469 2.49479 8.58594 2.0625C7.8724 1.625 7.09635 1.40625 6.25781 1.40625C5.42448 1.40625 4.64844 1.6224 3.92969 2.05469C3.21094 2.48177 2.64323 3.07552 2.22656 3.83594C1.8151 4.59635 1.60938 5.41927 1.60938 6.30469ZM0.710938 6.30469C0.710938 5.2526 0.953125 4.27604 1.4375 3.375C1.92708 2.47396 2.60156 1.76562 3.46094 1.25C4.32552 0.729167 5.25781 0.46875 6.25781 0.46875C7.25781 0.46875 8.1875 0.729167 9.04688 1.25C9.90625 1.76562 10.5781 2.47396 11.0625 3.375C11.5521 4.27604 11.7969 5.2526 11.7969 6.30469C11.7969 7.33073 11.5625 8.29167 11.0938 9.1875C10.625 10.0833 9.95833 10.8047 9.09375 11.3516C8.23438 11.8932 7.28906 12.1641 6.25781 12.1641C5.23177 12.1641 4.28646 11.8958 3.42188 11.3594C2.5625 10.8177 1.89583 10.099 1.42188 9.20312C0.947917 8.30729 0.710938 7.34115 0.710938 6.30469ZM21.2188 6.92969C19.9323 6.5599 18.9948 6.10677 18.4062 5.57031C17.8229 5.02865 17.5312 4.36198 17.5312 3.57031C17.5312 2.67448 17.888 1.9349 18.6016 1.35156C19.3203 0.763021 20.2526 0.46875 21.3984 0.46875C22.1797 0.46875 22.875 0.619792 23.4844 0.921875C24.099 1.22396 24.5729 1.64062 24.9062 2.17188C25.2448 2.70312 25.4141 3.28385 25.4141 3.91406H23.9062C23.9062 3.22656 23.6875 2.6875 23.25 2.29688C22.8125 1.90104 22.1953 1.70312 21.3984 1.70312C20.6589 1.70312 20.0807 1.86719 19.6641 2.19531C19.2526 2.51823 19.0469 2.96875 19.0469 3.54688C19.0469 4.01042 19.2422 4.40365 19.6328 4.72656C20.0286 5.04427 20.6979 5.33594 21.6406 5.60156C22.5885 5.86719 23.3281 6.16146 23.8594 6.48438C24.3958 6.80208 24.7917 7.17448 25.0469 7.60156C25.3073 8.02865 25.4375 8.53125 25.4375 9.10938C25.4375 10.0312 25.0781 10.7708 24.3594 11.3281C23.6406 11.8802 22.6797 12.1562 21.4766 12.1562C20.6953 12.1562 19.9661 12.0078 19.2891 11.7109C18.612 11.4089 18.0885 10.9974 17.7188 10.4766C17.3542 9.95573 17.1719 9.36458 17.1719 8.70312H18.6797C18.6797 9.39062 18.9323 9.9349 19.4375 10.3359C19.9479 10.7318 20.6276 10.9297 21.4766 10.9297C22.2682 10.9297 22.875 10.7682 23.2969 10.4453C23.7188 10.1224 23.9297 9.68229 23.9297 9.125C23.9297 8.56771 23.7344 8.13802 23.3438 7.83594C22.9531 7.52865 22.2448 7.22656 21.2188 6.92969ZM29.5 8.08594L28.5938 9.03125V12H27.1484V0H28.5938V7.25781L29.3672 6.32812L32 3.54688H33.7578L30.4688 7.07812L34.1406 12H32.4453L29.5 8.08594ZM36.8203 12H35.375V3.54688H36.8203V12ZM35.2578 1.30469C35.2578 1.07031 35.3281 0.872396 35.4688 0.710938C35.6146 0.549479 35.8281 0.46875 36.1094 0.46875C36.3906 0.46875 36.6042 0.549479 36.75 0.710938C36.8958 0.872396 36.9688 1.07031 36.9688 1.30469C36.9688 1.53906 36.8958 1.73438 36.75 1.89062C36.6042 2.04688 36.3906 2.125 36.1094 2.125C35.8281 2.125 35.6146 2.04688 35.4688 1.89062C35.3281 1.73438 35.2578 1.53906 35.2578 1.30469ZM40.7109 12H39.2656V0H40.7109V12ZM44.6016 12H43.1562V0H44.6016V12ZM47.1484 12V0.625H50.3594C51.349 0.625 52.224 0.84375 52.9844 1.28125C53.7448 1.71875 54.3307 2.34115 54.7422 3.14844C55.1589 3.95573 55.3698 4.88281 55.375 5.92969V6.65625C55.375 7.72917 55.1667 8.66927 54.75 9.47656C54.3385 10.2839 53.7474 10.9036 52.9766 11.3359C52.2109 11.7682 51.3177 11.9896 50.2969 12H47.1484ZM48.6484 1.85938V10.7734H50.2266C51.3828 10.7734 52.2812 10.4141 52.9219 9.69531C53.5677 8.97656 53.8906 7.95312 53.8906 6.625V5.96094C53.8906 4.66927 53.5859 3.66667 52.9766 2.95312C52.3724 2.23438 51.513 1.86979 50.3984 1.85938H48.6484ZM61.5078 4.84375C61.2891 4.80729 61.0521 4.78906 60.7969 4.78906C59.849 4.78906 59.2057 5.19271 58.8672 6V12H57.4219V3.54688H58.8281L58.8516 4.52344C59.3255 3.76823 59.9974 3.39062 60.8672 3.39062C61.1484 3.39062 61.362 3.42708 61.5078 3.5V4.84375ZM64.4141 12H62.9688V3.54688H64.4141V12ZM62.8516 1.30469C62.8516 1.07031 62.9219 0.872396 63.0625 0.710938C63.2083 0.549479 63.4219 0.46875 63.7031 0.46875C63.9844 0.46875 64.1979 0.549479 64.3438 0.710938C64.4896 0.872396 64.5625 1.07031 64.5625 1.30469C64.5625 1.53906 64.4896 1.73438 64.3438 1.89062C64.1979 2.04688 63.9844 2.125 63.7031 2.125C63.4219 2.125 63.2083 2.04688 63.0625 1.89062C62.9219 1.73438 62.8516 1.53906 62.8516 1.30469ZM69.5234 10.0391L71.6172 3.54688H73.0938L70.0625 12H68.9609L65.8984 3.54688H67.375L69.5234 10.0391ZM77.8828 12.1562C76.737 12.1562 75.8047 11.7812 75.0859 11.0312C74.3672 10.276 74.0078 9.26823 74.0078 8.00781V7.74219C74.0078 6.90365 74.1667 6.15625 74.4844 5.5C74.8073 4.83854 75.2552 4.32292 75.8281 3.95312C76.4062 3.57812 77.0312 3.39062 77.7031 3.39062C78.8021 3.39062 79.6562 3.7526 80.2656 4.47656C80.875 5.20052 81.1797 6.23698 81.1797 7.58594V8.1875H75.4531C75.474 9.02083 75.7161 9.69531 76.1797 10.2109C76.6484 10.7214 77.2422 10.9766 77.9609 10.9766C78.4714 10.9766 78.9036 10.8724 79.2578 10.6641C79.612 10.4557 79.9219 10.1797 80.1875 9.83594L81.0703 10.5234C80.362 11.612 79.2995 12.1562 77.8828 12.1562ZM77.7031 4.57812C77.1198 4.57812 76.6302 4.79167 76.2344 5.21875C75.8385 5.64062 75.5938 6.23438 75.5 7H79.7344V6.89062C79.6927 6.15625 79.4948 5.58854 79.1406 5.1875C78.7865 4.78125 78.3073 4.57812 77.7031 4.57812ZM88.6641 12H87.1641V0.625H88.6641V12ZM92.5547 3.54688L92.6016 4.60938C93.2474 3.79688 94.0911 3.39062 95.1328 3.39062C96.9193 3.39062 97.8203 4.39844 97.8359 6.41406V12H96.3906V6.40625C96.3854 5.79688 96.2448 5.34635 95.9688 5.05469C95.6979 4.76302 95.2734 4.61719 94.6953 4.61719C94.2266 4.61719 93.8151 4.74219 93.4609 4.99219C93.1068 5.24219 92.8307 5.57031 92.6328 5.97656V12H91.1875V3.54688H92.5547ZM103.406 10.9766C103.922 10.9766 104.372 10.8203 104.758 10.5078C105.143 10.1953 105.357 9.80469 105.398 9.33594H106.766C106.74 9.82031 106.573 10.2812 106.266 10.7188C105.958 11.1562 105.547 11.5052 105.031 11.7656C104.521 12.026 103.979 12.1562 103.406 12.1562C102.255 12.1562 101.339 11.7734 100.656 11.0078C99.9792 10.237 99.6406 9.1849 99.6406 7.85156V7.60938C99.6406 6.78646 99.7917 6.05469 100.094 5.41406C100.396 4.77344 100.828 4.27604 101.391 3.92188C101.958 3.56771 102.628 3.39062 103.398 3.39062C104.346 3.39062 105.133 3.67448 105.758 4.24219C106.388 4.8099 106.724 5.54688 106.766 6.45312H105.398C105.357 5.90625 105.148 5.45833 104.773 5.10938C104.404 4.75521 103.945 4.57812 103.398 4.57812C102.664 4.57812 102.094 4.84375 101.688 5.375C101.286 5.90104 101.086 6.66406 101.086 7.66406V7.9375C101.086 8.91146 101.286 9.66146 101.688 10.1875C102.089 10.7135 102.661 10.9766 103.406 10.9766ZM108.422 11.2422C108.422 10.9922 108.495 10.7839 108.641 10.6172C108.792 10.4505 109.016 10.3672 109.312 10.3672C109.609 10.3672 109.833 10.4505 109.984 10.6172C110.141 10.7839 110.219 10.9922 110.219 11.2422C110.219 11.4818 110.141 11.6823 109.984 11.8438C109.833 12.0052 109.609 12.0859 109.312 12.0859C109.016 12.0859 108.792 12.0052 108.641 11.8438C108.495 11.6823 108.422 11.4818 108.422 11.2422ZM123.883 12H116.43V10.9609L120.367 6.58594C120.951 5.92448 121.352 5.38802 121.57 4.97656C121.794 4.5599 121.906 4.13021 121.906 3.6875C121.906 3.09375 121.727 2.60677 121.367 2.22656C121.008 1.84635 120.529 1.65625 119.93 1.65625C119.211 1.65625 118.651 1.86198 118.25 2.27344C117.854 2.67969 117.656 3.2474 117.656 3.97656H116.211C116.211 2.92969 116.547 2.08333 117.219 1.4375C117.896 0.791667 118.799 0.46875 119.93 0.46875C120.987 0.46875 121.823 0.747396 122.438 1.30469C123.052 1.85677 123.359 2.59375 123.359 3.51562C123.359 4.63542 122.646 5.96875 121.219 7.51562L118.172 10.8203H123.883V12ZM132.547 7.14844C132.547 8.84115 132.258 10.099 131.68 10.9219C131.102 11.7448 130.198 12.1562 128.969 12.1562C127.755 12.1562 126.857 11.7552 126.273 10.9531C125.69 10.1458 125.388 8.94271 125.367 7.34375V5.41406C125.367 3.74219 125.656 2.5 126.234 1.6875C126.812 0.875 127.719 0.46875 128.953 0.46875C130.177 0.46875 131.078 0.861979 131.656 1.64844C132.234 2.42969 132.531 3.63802 132.547 5.27344V7.14844ZM131.102 5.17188C131.102 3.94792 130.93 3.05729 130.586 2.5C130.242 1.9375 129.698 1.65625 128.953 1.65625C128.214 1.65625 127.674 1.9349 127.336 2.49219C126.997 3.04948 126.823 3.90625 126.812 5.0625V7.375C126.812 8.60417 126.99 9.51302 127.344 10.1016C127.703 10.6849 128.245 10.9766 128.969 10.9766C129.682 10.9766 130.211 10.7005 130.555 10.1484C130.904 9.59635 131.086 8.72656 131.102 7.53906V5.17188ZM141.852 12H134.398V10.9609L138.336 6.58594C138.919 5.92448 139.32 5.38802 139.539 4.97656C139.763 4.5599 139.875 4.13021 139.875 3.6875C139.875 3.09375 139.695 2.60677 139.336 2.22656C138.977 1.84635 138.497 1.65625 137.898 1.65625C137.18 1.65625 136.62 1.86198 136.219 2.27344C135.823 2.67969 135.625 3.2474 135.625 3.97656H134.18C134.18 2.92969 134.516 2.08333 135.188 1.4375C135.865 0.791667 136.768 0.46875 137.898 0.46875C138.956 0.46875 139.792 0.747396 140.406 1.30469C141.021 1.85677 141.328 2.59375 141.328 3.51562C141.328 4.63542 140.615 5.96875 139.188 7.51562L136.141 10.8203H141.852V12ZM150.516 7.14844C150.516 8.84115 150.227 10.099 149.648 10.9219C149.07 11.7448 148.167 12.1562 146.938 12.1562C145.724 12.1562 144.826 11.7552 144.242 10.9531C143.659 10.1458 143.357 8.94271 143.336 7.34375V5.41406C143.336 3.74219 143.625 2.5 144.203 1.6875C144.781 0.875 145.688 0.46875 146.922 0.46875C148.146 0.46875 149.047 0.861979 149.625 1.64844C150.203 2.42969 150.5 3.63802 150.516 5.27344V7.14844ZM149.07 5.17188C149.07 3.94792 148.898 3.05729 148.555 2.5C148.211 1.9375 147.667 1.65625 146.922 1.65625C146.182 1.65625 145.643 1.9349 145.305 2.49219C144.966 3.04948 144.792 3.90625 144.781 5.0625V7.375C144.781 8.60417 144.958 9.51302 145.312 10.1016C145.672 10.6849 146.214 10.9766 146.938 10.9766C147.651 10.9766 148.18 10.7005 148.523 10.1484C148.872 9.59635 149.055 8.72656 149.07 7.53906V5.17188Z" fill="white"/>
</svg>
